<svg xmlns="http://www.w3.org/2000/svg" width="74.647" height="72.084" viewBox="0 0 74.647 72.084">
  <g id="Clubhouse" transform="translate(0.001 -8.789)">
    <path id="Path_172" data-name="Path 172" d="M74.6,42.264l-3.367-17.4a2.568,2.568,0,0,0-2.517-2.077H51.283v-2.7H52.9A1.768,1.768,0,0,0,54.618,18L53.11,10.208a1.755,1.755,0,0,0-1.721-1.419H23.258a1.756,1.756,0,0,0-1.721,1.419L20.028,18a1.768,1.768,0,0,0,1.721,2.086h1.614v2.7H5.929a2.568,2.568,0,0,0-2.517,2.077l-.749,3.871a1.094,1.094,0,0,0,2.147.416l.749-3.871a.378.378,0,0,1,.37-.306H23.363v8.138H19.77a1.093,1.093,0,0,0-1.094,1.094v8.92H2.561a.377.377,0,0,1-.37-.449l1.524-7.872a1.094,1.094,0,0,0-2.147-.416L.044,42.264a2.609,2.609,0,0,0,2.517,3.052h1.06V78.309a2.567,2.567,0,0,0,2.564,2.565h36.37a1.094,1.094,0,0,0,0-2.187H21.163V76.775a.378.378,0,0,1,.377-.377H53.106a.378.378,0,0,1,.377.377v1.911H48.732a1.094,1.094,0,0,0,0,2.187H68.46a2.567,2.567,0,0,0,2.564-2.565V45.316h1.06A2.615,2.615,0,0,0,74.6,42.264ZM23.616,10.976H51.03l1.34,6.925H22.276Zm1.934,9.112H49.1V33.115H25.55ZM51.206,74.21H49.277V47.218h1.929Zm-10.058,0H33.756V64.7h7.392Zm1.094-11.7H32.663A1.093,1.093,0,0,0,31.569,63.6V74.21H27.557V47.218H47.089V74.21H43.335V63.6a1.093,1.093,0,0,0-1.094-1.094Zm-18.8-15.292H25.37V74.21H23.441Zm-2.578-2.187V39.989H54.041v5.042ZM54.041,37.8H51.283V35.3h2.758Zm-4.945,0H25.55V35.3H49.1v2.5ZM23.363,35.3v2.5h-2.5V35.3ZM18.976,76.775v1.911H6.186a.378.378,0,0,1-.377-.377V45.316H18.676v.809a1.093,1.093,0,0,0,1.094,1.094h1.484V74.226a2.568,2.568,0,0,0-2.278,2.548Zm49.862,1.534a.378.378,0,0,1-.377.377H55.67V76.775a2.568,2.568,0,0,0-2.278-2.548V47.218h1.742a1.093,1.093,0,0,0,1.094-1.094v-.809H68.837V78.309Zm3.248-35.18H56.228v-8.92a1.093,1.093,0,0,0-1.094-1.094H51.283V24.976H68.718a.378.378,0,0,1,.37.306l3.367,17.4A.4.4,0,0,1,72.085,43.129Z" transform="translate(0)"/>
    <path id="Path_173" data-name="Path 173" d="M261.651,106.439a4.869,4.869,0,1,0-8.446.046,1.1,1.1,0,0,0,.434,2.1h2.213a1.1,1.1,0,0,0,.453-2.1,2.682,2.682,0,1,1,2.2.008c-1.226.549-.476,2.092.6,2.092h2.236A1.1,1.1,0,0,0,261.651,106.439Z" transform="translate(-215.718 -77.203)" fill="#ff7d4e"/>
    <path id="Path_174" data-name="Path 174" d="M196.684,103.533l1.934-2.746a1.094,1.094,0,0,0-1.788-1.259l-1.482,2.1-1.48-2.1a1.094,1.094,0,0,0-1.789,1.258l1.931,2.746-2.3,3.262a1.094,1.094,0,0,0,1.788,1.259l1.846-2.621,1.843,2.62a1.094,1.094,0,0,0,1.789-1.258Z" transform="translate(-163.587 -77.117)" fill="#ff7d4e"/>
    <path id="Path_175" data-name="Path 175" d="M70.6,288.2H65.085a1.093,1.093,0,0,0-1.094,1.094v8.484a1.093,1.093,0,0,0,1.094,1.094H70.6a1.093,1.093,0,0,0,1.094-1.094v-8.484A1.093,1.093,0,0,0,70.6,288.2ZM69.5,296.682H66.178v-6.3H69.5Z" transform="translate(-54.661 -238.669)"/>
    <path id="Path_176" data-name="Path 176" d="M207.355,288.2h-4.2a1.093,1.093,0,0,0-1.094,1.094v8.484a1.093,1.093,0,0,0,1.094,1.094h4.2a1.093,1.093,0,0,0,1.094-1.094v-8.484A1.093,1.093,0,0,0,207.355,288.2Zm-1.094,8.484h-2.012v-6.3h2.012Z" transform="translate(-172.601 -238.669)" fill="#ff7d4e"/>
    <path id="Path_177" data-name="Path 177" d="M272.487,297.776v-8.484a1.093,1.093,0,0,0-1.094-1.094h-4.2a1.093,1.093,0,0,0-1.094,1.094v8.484a1.093,1.093,0,0,0,1.094,1.094h4.2A1.093,1.093,0,0,0,272.487,297.776Zm-2.187-1.094h-2.012v-6.3H270.3Z" transform="translate(-227.302 -238.669)"/>
    <path id="Path_178" data-name="Path 178" d="M70.6,380.854H65.085a1.093,1.093,0,0,0-1.094,1.094v8.485a1.093,1.093,0,0,0,1.094,1.094H70.6a1.093,1.093,0,0,0,1.094-1.094v-8.485A1.093,1.093,0,0,0,70.6,380.854ZM69.5,389.339H66.178v-6.3H69.5Z" transform="translate(-54.661 -317.815)" fill="#ff7d4e"/>
    <path id="Path_179" data-name="Path 179" d="M391.659,298.87h5.511a1.093,1.093,0,0,0,1.094-1.094v-8.484a1.093,1.093,0,0,0-1.094-1.094h-5.511a1.093,1.093,0,0,0-1.094,1.094v8.484A1.094,1.094,0,0,0,391.659,298.87Zm1.094-8.485h3.324v6.3h-3.324Z" transform="translate(-333.619 -238.669)" fill="#ff7d4e"/>
    <path id="Path_180" data-name="Path 180" d="M391.659,391.527h5.511a1.093,1.093,0,0,0,1.094-1.094v-8.484a1.093,1.093,0,0,0-1.094-1.094h-5.511a1.093,1.093,0,0,0-1.094,1.094v8.484A1.094,1.094,0,0,0,391.659,391.527Zm1.094-8.485h3.324v6.3h-3.324Z" transform="translate(-333.619 -317.816)"/>
  </g>
</svg>
