<svg xmlns="http://www.w3.org/2000/svg" width="20.172" height="20.172" viewBox="0 0 20.172 20.172">
  <g id="directions" transform="translate(0 0)">
    <path id="Path_143" data-name="Path 143" d="M2.537,156.736a.591.591,0,0,0,1.009-.418v-1.181H6.54A2.366,2.366,0,0,1,8.9,157.5v7.131a.591.591,0,0,0,.591.591h1.182a.591.591,0,0,0,.591-.591V157.5a4.733,4.733,0,0,0-4.728-4.728H3.546v-1.182a.591.591,0,0,0-1.009-.418L.173,153.537a.591.591,0,0,0,0,.836Zm0,0" transform="translate(0 -145.05)" fill="#345ea8"/>
    <path id="Path_144" data-name="Path 144" d="M183.955,7.753a5.884,5.884,0,0,1,1.182-.711v-3.5h1.182a.591.591,0,0,0,.418-1.009L184.373.174a.591.591,0,0,0-.836,0l-2.364,2.364a.591.591,0,0,0,.418,1.009h1.182v3.5A5.884,5.884,0,0,1,183.955,7.753Zm0,0" transform="translate(-173.869)" fill="#345ea8"/>
    <path id="Path_145" data-name="Path 145" d="M284.715,151.172a.591.591,0,0,0-1.009.418v1.182h-2.994a4.7,4.7,0,0,0-2.678.838,5.875,5.875,0,0,1,1.181,2.075,2.341,2.341,0,0,1,1.5-.549h2.994v1.181a.591.591,0,0,0,1.009.418l2.364-2.363a.591.591,0,0,0,0-.836Zm0,0" transform="translate(-267.081 -145.05)" fill="#345ea8"/>
  </g>
</svg>
