<svg xmlns="http://www.w3.org/2000/svg" width="76.376" height="76.376" viewBox="0 0 76.376 76.376">
  <g id="Laundry_" data-name="Laundry " transform="translate(-16 -16)">
    <path id="Path_146" data-name="Path 146" d="M66.546,33.821h56.009v5.092H125.1V19.819A3.823,3.823,0,0,0,121.282,16H67.819A3.823,3.823,0,0,0,64,19.819V37.64h2.546Zm1.273-15.275h53.463a1.274,1.274,0,0,1,1.273,1.273V31.275H66.546V19.819A1.274,1.274,0,0,1,67.819,18.546Z" transform="translate(-40.362)"/>
    <path id="Path_147" data-name="Path 147" d="M107.819,55.638A3.819,3.819,0,1,0,104,51.819a3.819,3.819,0,0,0,3.819,3.819Zm0-5.092a1.273,1.273,0,1,1-1.273,1.273A1.273,1.273,0,0,1,107.819,50.546Z" transform="translate(-73.998 -26.908)" fill="#ff7d4e"/>
    <path id="Path_148" data-name="Path 148" d="M169.273,55.638H189.64a1.273,1.273,0,0,0,1.273-1.273V49.273A1.273,1.273,0,0,0,189.64,48H169.273A1.273,1.273,0,0,0,168,49.273v5.092a1.273,1.273,0,0,0,1.273,1.273Zm1.273-5.092h17.821v2.546H170.546Z" transform="translate(-127.814 -26.908)"/>
    <rect id="Rectangle_749" data-name="Rectangle 749" width="5" height="2" transform="translate(65.188 24.188)"/>
    <rect id="Rectangle_750" data-name="Rectangle 750" width="5" height="2" transform="translate(73.188 24.188)"/>
    <path id="Path_149" data-name="Path 149" d="M104,405.092a5.1,5.1,0,0,0,5.092,5.092h5.092a5.092,5.092,0,0,0,0-10.183h-5.092A5.1,5.1,0,0,0,104,405.092Zm5.092-2.546h5.092a2.546,2.546,0,0,1,0,5.092h-5.092a2.546,2.546,0,0,1,0-5.092Z" transform="translate(-73.998 -322.899)"/>
    <path id="Path_150" data-name="Path 150" d="M224.106,188.255l-.506-2.495a13.926,13.926,0,0,0-2.8.885l1.019,2.333A11.387,11.387,0,0,1,224.106,188.255Z" transform="translate(-172.211 -142.749)"/>
    <path id="Path_151" data-name="Path 151" d="M24.911,185.821a1.273,1.273,0,0,0,1.273-1.273,6.372,6.372,0,0,1,6.365-6.365,1.273,1.273,0,1,0,0-2.546,6.372,6.372,0,0,1-6.365-6.365,1.273,1.273,0,0,0-2.546,0,6.372,6.372,0,0,1-6.365,6.365,1.273,1.273,0,1,0,0,2.546,6.372,6.372,0,0,1,6.365,6.365,1.273,1.273,0,0,0,1.273,1.273Zm-3.052-8.911a8.983,8.983,0,0,0,3.052-3.052,8.983,8.983,0,0,0,3.052,3.052,8.983,8.983,0,0,0-3.052,3.052A8.983,8.983,0,0,0,21.859,176.911Z" transform="translate(0 -127.814)" fill="#ff7d4e"/>
    <path id="Path_152" data-name="Path 152" d="M182,270.365a5.1,5.1,0,0,1-5.092-5.092,1.273,1.273,0,0,0-2.546,0,5.1,5.1,0,0,1-5.092,5.092,1.273,1.273,0,1,0,0,2.546A5.1,5.1,0,0,1,174.365,278a1.273,1.273,0,1,0,2.546,0A5.1,5.1,0,0,1,182,272.911a1.273,1.273,0,1,0,0-2.546Zm-6.365,3.42a7.7,7.7,0,0,0-2.147-2.147,7.7,7.7,0,0,0,2.147-2.147,7.7,7.7,0,0,0,2.147,2.147,7.7,7.7,0,0,0-2.147,2.147Z" transform="translate(-127.814 -208.539)" fill="#ff7d4e"/>
    <path id="Path_153" data-name="Path 153" d="M131.465,166.968H114.759a20.6,20.6,0,0,0,.158-2.546,20.361,20.361,0,1,0-16.483,19.994,6.369,6.369,0,0,0,2.486,4.191,6.355,6.355,0,0,0-1.274,8.911H67.819a1.274,1.274,0,0,1-1.273-1.273v-28H64v28a3.823,3.823,0,0,0,3.819,3.819h63.647a1.273,1.273,0,0,0,1.273-1.273v-30.55a1.273,1.273,0,0,0-1.273-1.273Zm-1.273,5.092H103.461v2.546h26.732v2.546H104.734a3.819,3.819,0,1,1,0-7.638h25.459Zm-31.58,9.717a17.815,17.815,0,1,1,13.577-14.809h-3.87A14.005,14.005,0,0,0,94.55,150.42v2.546a11.464,11.464,0,0,1,11.172,14h-.988a6.362,6.362,0,0,0-3.814,11.456A6.385,6.385,0,0,0,98.613,181.777Zm2.3,1.739a3.823,3.823,0,0,1,3.819-3.819h25.459v2.546H103.461v2.546h26.732v2.546H104.734a3.823,3.823,0,0,1-3.819-3.819Zm5.092,14h-1.273a3.819,3.819,0,1,1,0-7.638h25.459v2.546H103.461v2.546h26.732v2.546Z" transform="translate(-40.362 -107.688)"/>
    <path id="Path_154" data-name="Path 154" d="M399.638,176a1.273,1.273,0,0,0-1.273,1.273,5.1,5.1,0,0,1-5.092,5.092,1.273,1.273,0,0,0,0,2.546A5.1,5.1,0,0,1,398.365,190a1.273,1.273,0,0,0,2.546,0A5.1,5.1,0,0,1,406,184.911a1.273,1.273,0,0,0,0-2.546,5.1,5.1,0,0,1-5.092-5.092A1.273,1.273,0,0,0,399.638,176Zm0,9.785a7.7,7.7,0,0,0-2.147-2.147,7.7,7.7,0,0,0,2.147-2.147,7.7,7.7,0,0,0,2.147,2.147,7.7,7.7,0,0,0-2.147,2.147Z" transform="translate(-316.172 -134.541)" fill="#ff7d4e"/>
  </g>
</svg>
