<svg xmlns="http://www.w3.org/2000/svg" width="12.351" height="12.351" viewBox="0 0 12.351 12.351">
  <g id="Layer_1" transform="translate(-2 -2)">
    <g id="Group_4611" data-name="Group 4611" transform="translate(2 2)">
      <path id="Path_126" data-name="Path 126" d="M2,13.039a1.313,1.313,0,0,0,1.312,1.312h9.727a1.313,1.313,0,0,0,1.312-1.312V3.312A1.313,1.313,0,0,0,13.039,2H3.312A1.313,1.313,0,0,0,2,3.312Zm11.039.429H3.312a.43.43,0,0,1-.429-.429v-.682L6.837,9.193l3.692,3.282a.441.441,0,0,0,.586-.659l-1.01-.9,1.116-.837,2.247,2.247v.711a.43.43,0,0,1-.429.429ZM3.312,2.882h9.727a.43.43,0,0,1,.429.429V11.08L11.575,9.187A.44.44,0,0,0,11,9.146L9.433,10.32,7.145,8.287a.441.441,0,0,0-.569-.015L2.882,11.227V3.312a.43.43,0,0,1,.429-.429Z" transform="translate(-2 -2)" fill="#fff"/>
      <path id="Path_127" data-name="Path 127" d="M18.764,9.529A1.764,1.764,0,1,0,17,7.764,1.766,1.766,0,0,0,18.764,9.529Zm0-2.647a.882.882,0,1,1-.882.882A.883.883,0,0,1,18.764,6.882Z" transform="translate(-10.383 -4.236)" fill="#fff"/>
    </g>
  </g>
</svg>
