<svg xmlns="http://www.w3.org/2000/svg" width="75.56" height="75.542" viewBox="0 0 75.56 75.542">
  <g id="sport" transform="translate(0.025 -0.1)">
    <path id="Path_163" data-name="Path 163" d="M187.456,23.6A27.309,27.309,0,0,0,177.2,30.89Z" transform="translate(-151.072 -20.032)" fill="#992295"/>
    <g id="Group_4664" data-name="Group 4664" transform="translate(19.296 1.561)">
      <path id="Path_164" data-name="Path 164" d="M156.4,289.5a27.468,27.468,0,0,0,18.284,13l-6.154-10.669Z" transform="translate(-152.637 -248.254)" fill="#ff7d4e"/>
      <path id="Path_165" data-name="Path 165" d="M167.586,11.623l10.758,7.128A27.415,27.415,0,0,0,148,11.992l10.256,6.272v9.5L149.7,33.98l-9.991-2.243L137.718,19.3a27.361,27.361,0,0,0-3.055,31.92l-3.586-10.758,8.633-8.707L149.7,34l3.276,10.05h10.61l3.276-10.064h.015l-8.559-6.213v-9.5Z" transform="translate(-130.9 -10)" fill="#ff7d4e"/>
    </g>
    <g id="Group_4665" data-name="Group 4665" transform="translate(63.995 9.751)">
      <path id="Path_166" data-name="Path 166" d="M438.552,68.437a28.54,28.54,0,0,0-2.509-2.937v.192h0l.546.384-1.771,12.13-1.018.443v.015l1.033-.457,8.987,8.825A27.353,27.353,0,0,0,438.552,68.437Z" transform="translate(-433.8 -65.5)" fill="#ff7d4e"/>
    </g>
    <g id="Group_4666" data-name="Group 4666" transform="translate(51.88 42.719)">
      <path id="Path_167" data-name="Path 167" d="M368.361,292.073a26.509,26.509,0,0,0,2.2-3.173l-.177.044h0l-.236.62-12.189,1.372-.694-.871h-.015l.694.885L351.7,301.886A27.18,27.18,0,0,0,368.361,292.073Z" transform="translate(-351.7 -288.9)" fill="#ff7d4e"/>
    </g>
    <path id="Path_168" data-name="Path 168" d="M281.1,377.7a27.6,27.6,0,0,0,10.478,0Z" transform="translate(-239.639 -321.877)" fill="#992295"/>
    <path id="Path_169" data-name="Path 169" d="M90.649,43.427a28.812,28.812,0,0,0,3.7-11.083V32.3a27.972,27.972,0,0,0,.192-3.35,28.775,28.775,0,0,0-7.57-19.465,1.2,1.2,0,0,0-.266-.28A28.792,28.792,0,0,0,75.6,1.856c-.074-.03-.162-.059-.236-.089A28.789,28.789,0,0,0,55,2.166a1.971,1.971,0,0,0-.266.1,29.1,29.1,0,0,0-10.566,7.5,2.268,2.268,0,0,0-.251.28,28.842,28.842,0,0,0-6.892,22.106V32.2A30.152,30.152,0,0,0,38.2,37.746l-15.5,15.5a1.47,1.47,0,0,0,0,2.081,1.449,1.449,0,0,0,1.048.428,1.512,1.512,0,0,0,1.048-.428L39.368,40.756c.413.9.856,1.786,1.343,2.627a1.739,1.739,0,0,0,.162.28A29.068,29.068,0,0,0,57.386,56.59L47,66.979a1.47,1.47,0,0,0,0,2.081,1.449,1.449,0,0,0,1.048.428,1.512,1.512,0,0,0,1.048-.428L60.78,57.373a28.81,28.81,0,0,0,29.706-13.65C90.531,43.648,90.59,43.545,90.649,43.427Zm-12.765.044L72.63,35.384,75.419,26.8l6.641-1.49,1.727-.384,7.541,7.748a25.493,25.493,0,0,1-3,8.84Zm-19.14-8.057L53.5,43.471,43.013,41.464a25.655,25.655,0,0,1-2.981-8.913l7.556-7.615,8.367,1.874,1.859,5.726ZM44.208,14.488l1.328,8.323-5.755,5.8A25.819,25.819,0,0,1,44.208,14.488ZM61.444,34.145l-2.612-8.028,6.818-4.958,6.818,4.958-2.612,8.028Zm30.149-5.416L85.808,22.8l1.018-8.781A25.592,25.592,0,0,1,91.593,28.729ZM84.229,10.873,82.916,22.1l-3.173.708-5.135,1.151L67.2,18.576V10.607l8.013-5.755A26.579,26.579,0,0,1,84.229,10.873ZM71.686,3.76,65.635,8.1,58.891,3.966a25.945,25.945,0,0,1,6.818-.915A25.186,25.186,0,0,1,71.686,3.76ZM55.29,5.236l8.884,5.445v7.925l-5.209,3.778-2.184,1.594L48.414,22.1,46.7,11.36A25.829,25.829,0,0,1,55.29,5.236ZM45.3,44.918l7.969,1.535,4.058,7.024A26.057,26.057,0,0,1,45.3,44.918Zm16.012,9.577L55.94,45.168,61.179,37.1H70.21l5.239,8.072-5.372,9.327a25.341,25.341,0,0,1-4.383.369A26.611,26.611,0,0,1,61.311,54.495Zm12.75-1.018,4.058-7.024,7.939-1.49A26.22,26.22,0,0,1,74.062,53.477Z" transform="translate(-19.009)"/>
    <path id="Path_170" data-name="Path 170" d="M20.3,357.707.407,377.6a1.47,1.47,0,0,0,0,2.081,1.5,1.5,0,0,0,2.1,0l19.893-19.893a1.47,1.47,0,0,0,0-2.081A1.487,1.487,0,0,0,20.3,357.707Z" transform="translate(0 -304.466)"/>
    <path id="Path_171" data-name="Path 171" d="M157.576,481a1.552,1.552,0,0,0-1.048.428,1.436,1.436,0,0,0-.428,1.048,1.552,1.552,0,0,0,.428,1.048,1.461,1.461,0,0,0,1.048.428,1.552,1.552,0,0,0,1.048-.428,1.461,1.461,0,0,0,.428-1.048A1.461,1.461,0,0,0,157.576,481Z" transform="translate(-133.085 -409.933)"/>
  </g>
</svg>
