<svg xmlns="http://www.w3.org/2000/svg" width="13.223" height="14.24" viewBox="0 0 13.223 14.24">
  <g id="upload" transform="translate(-17.065 0)">
    <g id="Group_4614" data-name="Group 4614" transform="translate(17.065 4.577)">
      <g id="Group_4613" data-name="Group 4613">
        <path id="Path_128" data-name="Path 128" d="M28.762,153.6H26.219a.509.509,0,1,0,0,1.017h2.543a.509.509,0,0,1,.509.509v6.611a.509.509,0,0,1-.509.509H18.591a.509.509,0,0,1-.509-.509v-6.611a.509.509,0,0,1,.509-.509h2.543a.509.509,0,0,0,0-1.017H18.591a1.526,1.526,0,0,0-1.526,1.526v6.611a1.526,1.526,0,0,0,1.526,1.526H28.762a1.526,1.526,0,0,0,1.526-1.526v-6.611A1.526,1.526,0,0,0,28.762,153.6Z" transform="translate(-17.065 -153.595)" fill="#ff7d4e"/>
      </g>
    </g>
    <g id="Group_4616" data-name="Group 4616" transform="translate(20.631 0)">
      <g id="Group_4615" data-name="Group 4615">
        <path id="Path_129" data-name="Path 129" d="M142.689,2.692,140.146.149a.509.509,0,0,0-.719,0l-2.543,2.543a.509.509,0,0,0,.719.719l1.675-1.675v8.435a.509.509,0,1,0,1.017,0V1.736l1.675,1.675a.509.509,0,0,0,.719-.719Z" transform="translate(-136.741 0)" fill="#ff7d4e"/>
      </g>
    </g>
  </g>
</svg>
