<svg xmlns="http://www.w3.org/2000/svg" width="76.985" height="77" viewBox="0 0 76.985 77">
  <g id="vehicle-service" transform="translate(-8 -8)">
    <path id="Path_155" data-name="Path 155" d="M81.259,31.592h3.725V29.109H82.1L76.262,14.922A11.169,11.169,0,0,0,65.909,8H45.685a11.167,11.167,0,0,0-9.39,5.106L25.818,29.279,8.9,34.122a1.248,1.248,0,0,0-.9,1.2V51.459A1.245,1.245,0,0,0,9.242,52.7h6.286a11.166,11.166,0,0,0,22.2,0h3.958l.667,1.009A17.186,17.186,0,0,1,42.364,72.8l-.9,1.366a6.964,6.964,0,0,0,9.654,9.654l.838-.559a18.954,18.954,0,0,1,4.47-2.188v3.911h2.483V80.018a1.229,1.229,0,0,0-.559-1.04l-6.891-4.594v-4.3a1.242,1.242,0,0,1,2.483,0v3.725h2.483V57.667a1.242,1.242,0,1,1,2.483,0v8.692h2.483V55.184a1.242,1.242,0,0,1,2.483,0V66.359h2.483V57.667a1.242,1.242,0,1,1,2.483,0v8.692h2.483V62.634a1.242,1.242,0,1,1,2.483,0V75.781l-2.126,2.126a1.23,1.23,0,0,0-.357.885V85h2.483V83.588l.357.233a6.964,6.964,0,0,0,9.654-9.654l-.9-1.366A17.186,17.186,0,0,1,82.9,53.71l.9-1.366a6.964,6.964,0,0,0-9.654-9.654l-.838.559a19.236,19.236,0,0,1-21.357.016l-.838-.559A6.964,6.964,0,0,0,40.3,48.494a7.324,7.324,0,0,0,.233,1.738H37.738a11.166,11.166,0,0,0-22.2,0h-5.06v-7.45h3.725a1.245,1.245,0,0,0,1.242-1.242v-6.69l11.517-3.29a1.176,1.176,0,0,0,.7-.512L38.39,14.472A8.667,8.667,0,0,1,45.685,10.5H65.909a8.664,8.664,0,0,1,8.04,5.386l6.162,14.962a1.271,1.271,0,0,0,1.149.745ZM47.237,44.009a4.566,4.566,0,0,1,2.483.745l.838.559a21.761,21.761,0,0,0,24.12,0l.838-.559a4.48,4.48,0,0,1,6.953,3.725,4.566,4.566,0,0,1-.745,2.483l-.9,1.366a19.711,19.711,0,0,0,0,21.854l.9,1.366A4.48,4.48,0,0,1,78,82.5a4.566,4.566,0,0,1-2.483-.745l-.838-.559c-.295-.186-.59-.357-.885-.543V79.3l2.126-2.126a1.23,1.23,0,0,0,.357-.885V62.634a3.736,3.736,0,0,0-3.725-3.725,3.674,3.674,0,0,0-1.242.233V57.667a3.736,3.736,0,0,0-3.725-3.725,3.381,3.381,0,0,0-1.381.279,3.708,3.708,0,0,0-7.171,0,3.783,3.783,0,0,0-1.381-.279,3.736,3.736,0,0,0-3.725,3.725v8.925a3.674,3.674,0,0,0-1.242-.233,3.736,3.736,0,0,0-3.725,3.725v4.967a1.229,1.229,0,0,0,.559,1.04l4.718,3.151A21.975,21.975,0,0,0,50.559,81.2l-.838.559a4.48,4.48,0,0,1-6.953-3.725,4.566,4.566,0,0,1,.745-2.483l.9-1.366a19.711,19.711,0,0,0,0-21.854l-.9-1.366a4.48,4.48,0,0,1,3.725-6.953ZM26.625,42.767a8.692,8.692,0,1,1-8.692,8.692A8.7,8.7,0,0,1,26.625,42.767ZM12.967,40.284H10.483V36.248l2.483-.714Z"/>
    <path id="Path_156" data-name="Path 156" d="M94.208,260.417A6.208,6.208,0,1,0,88,254.208,6.207,6.207,0,0,0,94.208,260.417Zm0-9.934a3.725,3.725,0,1,1-3.725,3.725A3.736,3.736,0,0,1,94.208,250.483Z" transform="translate(-67.583 -202.749)"/>
    <path id="Path_157" data-name="Path 157" d="M211.25,58.082a1.259,1.259,0,0,0,.14-1.149l-4.982-12.96A6.267,6.267,0,0,0,200.6,40H181.962a6.19,6.19,0,0,0-5.293,2.949l-8.475,13.783a1.239,1.239,0,0,0,1.055,1.894h40.976A1.246,1.246,0,0,0,211.25,58.082ZM178.78,44.253a3.67,3.67,0,0,1,3.166-1.769h7.171V56.142H171.469ZM191.6,56.142V42.483h9a3.753,3.753,0,0,1,3.477,2.39l4.33,11.268Z" transform="translate(-135.174 -27.033)" fill="#ff7d4e"/>
    <path id="Path_158" data-name="Path 158" d="M288,176h4.967v2.483H288Z" transform="translate(-236.541 -141.925)" fill="#ff7d4e"/>
    <path id="Path_159" data-name="Path 159" d="M416,176h4.967v2.483H416Z" transform="translate(-344.674 -141.925)"/>
    <path id="Path_160" data-name="Path 160" d="M117.659,414.208a4.981,4.981,0,0,1-4.967-4.967,1.242,1.242,0,1,0-2.483,0,4.981,4.981,0,0,1-4.967,4.967,1.242,1.242,0,1,0,0,2.483,4.981,4.981,0,0,1,4.967,4.967,1.242,1.242,0,1,0,2.483,0,4.981,4.981,0,0,1,4.967-4.967,1.242,1.242,0,1,0,0-2.483Zm-6.208,3.337a7.914,7.914,0,0,0-2.1-2.1,7.914,7.914,0,0,0,2.1-2.1,7.914,7.914,0,0,0,2.1,2.1A7.914,7.914,0,0,0,111.45,417.545Z" transform="translate(-81.1 -337.916)" fill="#ff7d4e"/>
    <path id="Path_161" data-name="Path 161" d="M21.659,358.208a4.981,4.981,0,0,1-4.967-4.967,1.242,1.242,0,1,0-2.483,0,4.981,4.981,0,0,1-4.967,4.967,1.242,1.242,0,1,0,0,2.483,4.981,4.981,0,0,1,4.967,4.967,1.242,1.242,0,1,0,2.483,0,4.981,4.981,0,0,1,4.967-4.967,1.242,1.242,0,1,0,0-2.483Zm-6.208,3.337a7.914,7.914,0,0,0-2.1-2.1,7.914,7.914,0,0,0,2.1-2.1,7.914,7.914,0,0,0,2.1,2.1A7.914,7.914,0,0,0,15.45,361.545Z" transform="translate(0 -290.608)" fill="#ff7d4e"/>
    <path id="Path_162" data-name="Path 162" d="M9.242,16.692a4.981,4.981,0,0,1,4.967,4.967,1.242,1.242,0,0,0,2.483,0,4.981,4.981,0,0,1,4.967-4.967,1.242,1.242,0,0,0,0-2.483,4.981,4.981,0,0,1-4.967-4.967,1.242,1.242,0,0,0-2.483,0,4.981,4.981,0,0,1-4.967,4.967,1.242,1.242,0,0,0,0,2.483Zm6.208-3.337a7.914,7.914,0,0,0,2.1,2.1,7.914,7.914,0,0,0-2.1,2.1,7.914,7.914,0,0,0-2.1-2.1A7.914,7.914,0,0,0,15.45,13.355Z" fill="#ff7d4e"/>
  </g>
</svg>
