<svg xmlns="http://www.w3.org/2000/svg" width="11.941" height="12.737" viewBox="0 0 11.941 12.737">
  <path id="Icon_metro-calendar" data-name="Icon metro-calendar" d="M6.551,6.7H8.143V8.3H6.551Zm2.388,0h1.592V8.3H8.939Zm2.388,0H12.92V8.3H11.327ZM4.163,11.481H5.755v1.592H4.163Zm2.388,0H8.143v1.592H6.551Zm2.388,0h1.592v1.592H8.939ZM6.551,9.093H8.143v1.592H6.551Zm2.388,0h1.592v1.592H8.939Zm2.388,0H12.92v1.592H11.327Zm-7.165,0H5.755v1.592H4.163ZM12.92,1.928v.8H11.327v-.8H5.755v.8H4.163v-.8H2.571V14.665H14.512V1.928H12.92Zm.8,11.941H3.367V5.112H13.716Z" transform="translate(-2.571 -1.928)" fill="#fff"/>
</svg>
