<svg xmlns="http://www.w3.org/2000/svg" width="15.965" height="15.969" viewBox="0 0 15.965 15.969">
  <g id="enter" transform="translate(0.1 0.103)">
    <path id="Path_106" data-name="Path 106" d="M6.733,208.985H.493a.493.493,0,1,1,0-.985H6.733a.493.493,0,1,1,0,.985Zm0,0" transform="translate(0 -201.595)" fill="#ff7d4e" stroke="#ff7d4e" stroke-width="0.2"/>
    <path id="Path_107" data-name="Path 107" d="M123.164,133.9a.493.493,0,0,1-.348-.841l2.115-2.115-2.115-2.115a.493.493,0,0,1,.7-.7l2.463,2.463a.493.493,0,0,1,0,.7l-2.463,2.463A.492.492,0,0,1,123.164,133.9Zm0,0" transform="translate(-118.895 -124.044)" fill="#ff7d4e" stroke="#ff7d4e" stroke-width="0.2"/>
    <path id="Path_108" data-name="Path 108" d="M299.982,15.846a1.315,1.315,0,0,1-1.314-1.314V2.708a1.322,1.322,0,0,1,.889-1.247L303.5.145a1.328,1.328,0,0,1,1.733,1.249V13.218a1.323,1.323,0,0,1-.889,1.247L300.4,15.781a1.374,1.374,0,0,1-.418.064Zm3.941-14.78a.386.386,0,0,0-.118.017l-3.93,1.31a.339.339,0,0,0-.222.315V14.532a.346.346,0,0,0,.446.311l3.93-1.31a.34.34,0,0,0,.222-.315V1.394A.329.329,0,0,0,303.923,1.066Zm0,0" transform="translate(-289.471 -0.08)" fill="#ff7d4e" stroke="#ff7d4e" stroke-width="0.2"/>
    <path id="Path_109" data-name="Path 109" d="M171.161,3.284a.493.493,0,0,1-.493-.493V1.806A1.808,1.808,0,0,1,172.474,0h7.39a.493.493,0,1,1,0,.985h-7.39a.822.822,0,0,0-.821.821v.985A.493.493,0,0,1,171.161,3.284Zm0,0" transform="translate(-165.413)" fill="#ff7d4e" stroke="#ff7d4e" stroke-width="0.2"/>
    <path id="Path_110" data-name="Path 110" d="M175.1,344.617h-2.628a1.808,1.808,0,0,1-1.806-1.807v-.985a.493.493,0,1,1,.985,0v.985a.822.822,0,0,0,.821.821H175.1a.493.493,0,1,1,0,.985Zm0,0" transform="translate(-165.413 -330.822)" fill="#ff7d4e" stroke="#ff7d4e" stroke-width="0.2"/>
  </g>
</svg>
