<svg id="Group_936" data-name="Group 936" xmlns="http://www.w3.org/2000/svg" width="20.373" height="20.373" viewBox="0 0 20.373 20.373">
  <path id="Path_3" data-name="Path 3" d="M139.874,217.193l-.709,2.648-2.592.055a10.2,10.2,0,0,1-.075-9.512h0l2.308.423,1.011,2.294a6.081,6.081,0,0,0,.057,4.093Z" transform="translate(-135.359 -204.881)" fill="#fbbb00"/>
  <path id="Path_4" data-name="Path 4" d="M167.627,216.391A10.183,10.183,0,0,1,164,226.237h0l-2.906-.148-.411-2.568a6.073,6.073,0,0,0,2.612-3.1h-5.447v-4.03h9.785Z" transform="translate(-147.432 -208.107)" fill="#518ef8"/>
  <path id="Path_5" data-name="Path 5" d="M153.33,230.908h0a10.189,10.189,0,0,1-15.35-3.116l3.3-2.7a6.058,6.058,0,0,0,8.73,3.1Z" transform="translate(-136.767 -212.778)" fill="#28b446"/>
  <path id="Path_6" data-name="Path 6" d="M153.369,200.845l-3.3,2.7a6.058,6.058,0,0,0-8.93,3.172L137.819,204h0a10.188,10.188,0,0,1,15.55-3.157Z" transform="translate(-136.68 -198.5)" fill="#f14336"/>
</svg>
