<svg xmlns="http://www.w3.org/2000/svg" width="184.255" height="61.664" viewBox="0 0 184.255 61.664">
  <g id="Group_26" data-name="Group 26" transform="translate(-86.565 -30.237)">
    <g id="Group_25" data-name="Group 25" transform="translate(161.221 34.753)">
      <path id="Path_86" data-name="Path 86" d="M-2975.947-801.053a8.159,8.159,0,0,1-3.462-2.534,5.989,5.989,0,0,1-1.249-3.427.747.747,0,0,1,.214-.518.7.7,0,0,1,.535-.232h3.248a1.081,1.081,0,0,1,.643.178,1.9,1.9,0,0,1,.464.5,3.651,3.651,0,0,0,1.624,2.034,6.348,6.348,0,0,0,3.48.821,6.87,6.87,0,0,0,3.766-.839,2.622,2.622,0,0,0,1.267-2.3,2.179,2.179,0,0,0-.642-1.606A5.376,5.376,0,0,0-2968-810.1q-1.3-.482-3.873-1.16a15.184,15.184,0,0,1-6.175-2.641,5.8,5.8,0,0,1-1.963-4.712,6.263,6.263,0,0,1,1.142-3.694,7.586,7.586,0,0,1,3.266-2.552,12.257,12.257,0,0,1,4.944-.928,11.747,11.747,0,0,1,5.122,1.035,8.454,8.454,0,0,1,3.284,2.588,5.727,5.727,0,0,1,1.2,3.088.744.744,0,0,1-.214.518.7.7,0,0,1-.535.232h-3.391a1.065,1.065,0,0,1-1.071-.643,2.766,2.766,0,0,0-1.392-1.91,5.506,5.506,0,0,0-3-.768,5.511,5.511,0,0,0-3.087.75,2.456,2.456,0,0,0-1.125,2.177,2.327,2.327,0,0,0,.571,1.606,4.651,4.651,0,0,0,1.785,1.124,32.276,32.276,0,0,0,3.533,1.089,24.673,24.673,0,0,1,5.051,1.606,6.587,6.587,0,0,1,2.766,2.249,6.186,6.186,0,0,1,.893,3.462,6.521,6.521,0,0,1-1.267,4.016,7.87,7.87,0,0,1-3.57,2.588,14.716,14.716,0,0,1-5.336.892A14.11,14.11,0,0,1-2975.947-801.053Z" transform="translate(2980.658 826.396)"/>
      <path id="Path_87" data-name="Path 87" d="M-2701.589-732.214a9.124,9.124,0,0,1-2.481-6.5l-.036-.892a10.056,10.056,0,0,1,2.338-7.032,8.315,8.315,0,0,1,6.479-2.57,8.336,8.336,0,0,1,6.55,2.57,9.887,9.887,0,0,1,2.3,6.853v.75a.825.825,0,0,1-.25.607.869.869,0,0,1-.642.25h-11.851v.285a5.537,5.537,0,0,0,1.089,3.3,3.357,3.357,0,0,0,2.8,1.3,4.027,4.027,0,0,0,3.32-1.642,1.932,1.932,0,0,1,.5-.482,1.477,1.477,0,0,1,.607-.089h3.141a.883.883,0,0,1,.553.178.6.6,0,0,1,.232.5,3.32,3.32,0,0,1-1.017,2.017,8.419,8.419,0,0,1-2.909,2.017,10.553,10.553,0,0,1-4.39.857A8.673,8.673,0,0,1-2701.589-732.214Zm10.226-8.995v-.071a5.113,5.113,0,0,0-1.053-3.373,3.539,3.539,0,0,0-2.874-1.267,3.487,3.487,0,0,0-2.856,1.267,5.168,5.168,0,0,0-1.035,3.373v.071Z" transform="translate(2727.238 756.236)"/>
      <path id="Path_88" data-name="Path 88" d="M-2448.156-730.536a.823.823,0,0,1-.25-.607V-747.99a.81.81,0,0,1,.25-.625.859.859,0,0,1,.607-.232h2.963a.846.846,0,0,1,.625.232.847.847,0,0,1,.232.625v1.463a7.268,7.268,0,0,1,5.961-2.677,6.66,6.66,0,0,1,5.211,2.142,8.483,8.483,0,0,1,1.928,5.889v10.03a.859.859,0,0,1-.232.607.81.81,0,0,1-.625.25h-3.212a.824.824,0,0,1-.607-.25.824.824,0,0,1-.25-.607v-9.816a4.737,4.737,0,0,0-1.018-3.23,3.663,3.663,0,0,0-2.909-1.16,3.827,3.827,0,0,0-2.927,1.178,4.5,4.5,0,0,0-1.107,3.213v9.816a.86.86,0,0,1-.232.607.811.811,0,0,1-.625.25h-3.177A.824.824,0,0,1-2448.156-730.536Z" transform="translate(2492.99 756.236)"/>
      <path id="Path_89" data-name="Path 89" d="M-2183.94-828.918a.824.824,0,0,1-.25-.607v-2.606a.87.87,0,0,1,.25-.642.826.826,0,0,1,.607-.25h3.284a.871.871,0,0,1,.642.25.872.872,0,0,1,.25.642v2.606a.8.8,0,0,1-.268.607.886.886,0,0,1-.625.25h-3.284A.824.824,0,0,1-2183.94-828.918Zm.143,21.595a.824.824,0,0,1-.25-.607v-16.848a.81.81,0,0,1,.25-.625.858.858,0,0,1,.606-.232h3.034a.829.829,0,0,1,.607.25.829.829,0,0,1,.25.607v16.848a.827.827,0,0,1-.25.607.826.826,0,0,1-.607.25h-3.034A.823.823,0,0,1-2183.8-807.323Z" transform="translate(2250.939 833.023)"/>
      <path id="Path_90" data-name="Path 90" d="M-2076.175-732.071a8.292,8.292,0,0,1-2.463-5.925l-.036-1.57.036-1.571a8.241,8.241,0,0,1,2.5-5.907,9.117,9.117,0,0,1,6.46-2.159,9.066,9.066,0,0,1,6.425,2.159,8.248,8.248,0,0,1,2.5,5.907q.035.428.036,1.571t-.036,1.57a8.3,8.3,0,0,1-2.463,5.925,9.087,9.087,0,0,1-6.461,2.142A9.139,9.139,0,0,1-2076.175-732.071Zm9.405-2.641a5.436,5.436,0,0,0,1.089-3.462q.035-.356.036-1.392t-.036-1.392a5.45,5.45,0,0,0-1.107-3.48,3.621,3.621,0,0,0-2.891-1.2,3.663,3.663,0,0,0-2.927,1.2,5.446,5.446,0,0,0-1.106,3.48l-.036,1.392.036,1.392a5.366,5.366,0,0,0,1.106,3.462,3.69,3.69,0,0,0,2.927,1.178A3.635,3.635,0,0,0-2066.769-734.712Z" transform="translate(2154.274 756.236)"/>
      <path id="Path_91" data-name="Path 91" d="M-1817.189-726.639a.824.824,0,0,1-.25-.607v-16.812a.869.869,0,0,1,.25-.643.827.827,0,0,1,.607-.25h2.927a.872.872,0,0,1,.643.25.873.873,0,0,1,.25.643v1.464a6.058,6.058,0,0,1,5.14-2.356h1.5a.845.845,0,0,1,.625.232.845.845,0,0,1,.232.625v2.605a.859.859,0,0,1-.232.607.811.811,0,0,1-.625.25h-2.82a3.57,3.57,0,0,0-2.642.964,3.569,3.569,0,0,0-.964,2.641v9.78a.827.827,0,0,1-.25.607.827.827,0,0,1-.607.25h-3.177A.824.824,0,0,1-1817.189-726.639Z" transform="translate(1914.867 752.339)"/>
    </g>
    <g id="Group_18" data-name="Group 18" transform="translate(86.565 30.237)">
      <path id="Path_92" data-name="Path 92" d="M-3732.217-827.661a16.563,16.563,0,0,0-12.319-5.362,15.5,15.5,0,0,0-9.678,3.341,19.8,19.8,0,0,0-3.912,4.085,19.787,19.787,0,0,0-3.913-4.085,15.493,15.493,0,0,0-9.677-3.341,16.563,16.563,0,0,0-12.32,5.362,19.253,19.253,0,0,0-4.886,13.148c0,5.209,1.941,9.977,6.109,15.006,3.728,4.5,9.087,9.065,15.292,14.353,2.119,1.806,4.521,3.853,7.014,6.033a3.61,3.61,0,0,0,2.381.895,3.611,3.611,0,0,0,2.38-.894c2.494-2.181,4.9-4.229,7.017-6.036,6.2-5.287,11.563-9.853,15.291-14.352,4.167-5.028,6.108-9.8,6.108-15.006A19.25,19.25,0,0,0-3732.217-827.661Z" transform="translate(3795.702 833.023)" fill="#fc5432"/>
      <path id="Path_93" data-name="Path 93" d="M-3666.912-661.466a18.7,18.7,0,0,1-6.258-.75,12.394,12.394,0,0,1-2.54-1.388c-1.219-.823-2.424-1.665-3.636-2.5-.072-.05-.14-.108-.216-.151-.166-.092-.347-.2-.526-.064-.163.121-.13.308-.1.487a7.155,7.155,0,0,0,.541,1.561,63.549,63.549,0,0,1,2.143,6.422q1.126,3.532,2.191,7.084a19.318,19.318,0,0,1,.663,4.809c.066,1.761.088,3.523.165,5.284a12.4,12.4,0,0,0,.5,3.27,2.276,2.276,0,0,0,1.3,1.521,1.531,1.531,0,0,1,.886.969c.042.123.091.247-.131.244a38.454,38.454,0,0,1-6.142-.2.379.379,0,0,1-.361-.346,3.844,3.844,0,0,1,.007-1.384,14.17,14.17,0,0,0-.113-3.651,47.77,47.77,0,0,0-3.927-12.768,61.61,61.61,0,0,1-2.931-7.535c-.175-.6-.174-.6-.723-.282a13.81,13.81,0,0,1-4.156,1.4,34.27,34.27,0,0,1-4.558.612c-.312.021-.327.106-.233.382a4.681,4.681,0,0,0,3.426,3.148,5.616,5.616,0,0,1,2.336,1.159,2.262,2.262,0,0,0,.683.392,3.106,3.106,0,0,1,2.036,3.025c.1,2.062.022,4.128.039,6.192,0,.277,0,.554,0,.835.14-.024.107-.15.135-.235a23.87,23.87,0,0,0,1.176-7.944c-.032-1.636-.013-3.273-.017-4.909,0-.136,0-.273,0-.447a.74.74,0,0,1,.245.4c1.305,2.989,2.6,5.982,3.91,8.969a2.588,2.588,0,0,1,0,2.248c-.961,2.1-1.956,4.183-2.71,6.369-.119.343-.218.694-.319,1.043a2.326,2.326,0,0,0,.553,2.31c.217.244.46.465.684.7.153.163.182.34-.093.369a18.529,18.529,0,0,1-4.55.028c-.348-.049-.542-.354-.79-.589-.4-.376-.3-.806-.3-1.236q-.007-6.816,0-13.633a5.8,5.8,0,0,0-.066-.939.672.672,0,0,0-.89-.618.843.843,0,0,0-.146.036,6.2,6.2,0,0,1-5.337-.779,8.823,8.823,0,0,1-4.418-6.385,24.653,24.653,0,0,1-.33-4.208c0-.1,0-.2,0-.3,0-.066-.018-.127-.1-.133s-.095.065-.1.125c-.038.325-.08.649-.11.975a13.791,13.791,0,0,0,.253,4.947,7.2,7.2,0,0,0,3.692,4.724.529.529,0,0,1,.336.54,13.038,13.038,0,0,0,1.622,6.168,9.881,9.881,0,0,1,.689,1.422c.076.214.062.341-.233.346a6.057,6.057,0,0,0-1.669.438c-.241.075-.223.323-.254.5a7.619,7.619,0,0,0,.561,4.531c.166.367.389.7.587,1.051a1.086,1.086,0,0,0,1.033.561c.365,0,.729-.013,1.094-.028.275-.011.3.115.194.325a1.148,1.148,0,0,1-.517.48,8.061,8.061,0,0,1-2.726.82c-.321.047-.485-.149-.635-.375a9.914,9.914,0,0,1-.893-1.863c-.641-1.61-1.146-3.267-1.707-4.9-.118-.344-.251-.529-.648-.472a7.123,7.123,0,0,1-.829-.012.781.781,0,0,0-.837.69,21.662,21.662,0,0,0-.623,3.331,4.894,4.894,0,0,0,.12,1.648,1.737,1.737,0,0,0,1.141,1.3,2.161,2.161,0,0,1,.657.363c.1.079.219.164.2.3-.028.169-.2.185-.328.2a9.38,9.38,0,0,1-2.222.056c-.349-.043-.692-.124-1.041-.172a.528.528,0,0,1-.447-.4,3.069,3.069,0,0,1-.153-.85,32.147,32.147,0,0,1,.263-4.556c.046-.488.088-.977.12-1.467.015-.225-.177-.486.18-.636.119-.05-.01-.186-.087-.231-.205-.12-.425-.215-.634-.329a6.983,6.983,0,0,1-4.013-5.352,15.455,15.455,0,0,1,.32-5.731,24.337,24.337,0,0,1,4.351-9.513,11.1,11.1,0,0,1,1.984-2.009,4.65,4.65,0,0,1,1.279-.711,2.178,2.178,0,0,1,2.524.665,4.448,4.448,0,0,1,1.122,2.581,23.412,23.412,0,0,0,.362,2.614.421.421,0,0,0,.478.4,21.389,21.389,0,0,0,3.718-.318,30.6,30.6,0,0,0,4.564-.976c.1-.031.2-.066.333-.11a4.972,4.972,0,0,1-1.1-1.514,2.542,2.542,0,0,1-.123-1.872,8.42,8.42,0,0,1,1.231-2.433.719.719,0,0,1,.053.422,36.3,36.3,0,0,0,.065,3.659c.049.424.1.848.174,1.27.018.106-.081.344.133.294.188-.044.513-.044.447-.421s-.105-.746-.153-1.121a17.119,17.119,0,0,1,.214-4.4,10.147,10.147,0,0,1,1.214-3.929,5.647,5.647,0,0,1,1.68-1.91,2.853,2.853,0,0,1,2.934-.254,4.829,4.829,0,0,1,1.487,1.078,2.975,2.975,0,0,1,.687,2.025,4.624,4.624,0,0,0,1.294,2.9,24.808,24.808,0,0,0,4.23,3.452c1.5,1.061,3.162,1.853,4.749,2.769C-3667.269-662.246-3666.869-662.055-3666.912-661.466Z" transform="translate(3721.593 688.236)" fill="#fff" fill-rule="evenodd"/>
      <path id="Path_94" data-name="Path 94" d="M-3599.811-672.194a2.344,2.344,0,0,1,1.769,1.089.366.366,0,0,0,.514.172,1.667,1.667,0,0,1,.931-.034,3.769,3.769,0,0,1,3.163,3.525c.009.1-.027.187.15.115.118-.047.091.126.076.191-.124.561-.259,1.12-.392,1.679-.02.083-.109.16-.161.11-.262-.256-.269.058-.333.155a3.5,3.5,0,0,1-3.931,1.444,3.37,3.37,0,0,1-2.669-3.2.387.387,0,0,0-.309-.421,2.254,2.254,0,0,1-1.361-1.36,2.459,2.459,0,0,1-.1-1.681C-3602.193-671.565-3601.323-672.187-3599.811-672.194Z" transform="translate(3624.979 685.686)" fill="#fff" fill-rule="evenodd"/>
      <path id="Path_95" data-name="Path 95" d="M-3277.6-502.4a2.124,2.124,0,0,1,.726-1.431,4.189,4.189,0,0,1,2.963-1.2,1.442,1.442,0,0,1,1.6,1.617q0,10.4,0,20.807c0,1.271-.007,2.543.006,3.814,0,.261-.072.35-.333.353-.364,0-.728.04-1.091.078-.22.023-.326-.012-.359-.275a25.849,25.849,0,0,1-.186-2.824c-.078-5.048.057-10.095.162-15.141.04-1.937.211-3.87.214-5.81,0-.252-.022-.356-.313-.277a1.984,1.984,0,0,1-1.261-.079,1.893,1.893,0,0,0-1.952.273A1.521,1.521,0,0,1-3277.6-502.4Z" transform="translate(3327.274 532.545)" fill="#fff" fill-rule="evenodd"/>
      <path id="Path_96" data-name="Path 96" d="M-3373.47-743.725c-.191-.129-.165-.295-.21-.471a10.308,10.308,0,0,1-.558,1.167,3.739,3.739,0,0,1-1.861,1.634,1.982,1.982,0,0,1-2.024-.315,2.664,2.664,0,0,1-1.116-2.125c-.006-.654-.071-1.3-.135-1.956a2.039,2.039,0,0,1,1.6-2.417,3.464,3.464,0,0,1,1.437-.256,3.131,3.131,0,0,1,2.179,1.285A4.042,4.042,0,0,1-3373.47-743.725Z" transform="translate(3420.528 755.569)" fill="#fff" fill-rule="evenodd"/>
      <g id="Group_17" data-name="Group 17" transform="translate(13.566 34.517)">
        <path id="Path_97" data-name="Path 97" d="M-3692.423-405.123c-.364.015-.729.028-1.094.027a1.086,1.086,0,0,1-1.033-.561c-.2-.349-.421-.684-.587-1.051a7.539,7.539,0,0,1-.67-3.564,121.8,121.8,0,0,1-12.04-11.307,15.394,15.394,0,0,0-.046,4.35,6.983,6.983,0,0,0,4.013,5.352c.209.114.429.209.634.329.077.045.206.181.088.231-.357.15-.166.411-.181.636-.032.489-.074.978-.12,1.467a32.147,32.147,0,0,0-.262,4.556,3.034,3.034,0,0,0,.153.85.527.527,0,0,0,.446.4c.348.048.692.13,1.041.172a9.374,9.374,0,0,0,2.221-.056c.128-.015.3-.032.328-.2.023-.138-.1-.222-.2-.3a2.165,2.165,0,0,0-.657-.363,1.737,1.737,0,0,1-1.141-1.3,4.906,4.906,0,0,1-.12-1.648,21.6,21.6,0,0,1,.622-3.331.781.781,0,0,1,.837-.69,7.1,7.1,0,0,0,.829.012c.4-.057.531.128.648.472.562,1.637,1.066,3.294,1.707,4.9a9.945,9.945,0,0,0,.893,1.863c.15.226.314.422.636.375a8.066,8.066,0,0,0,2.726-.82,1.15,1.15,0,0,0,.517-.48C-3692.125-405.008-3692.148-405.135-3692.423-405.123Z" transform="translate(3708.025 421.579)" fill="#fc5432" fill-rule="evenodd"/>
        <path id="Path_98" data-name="Path 98" d="M-3476.927-213.7a1.08,1.08,0,0,0,.312.908c.248.234.443.54.791.589.238.034.476.06.714.079Q-3476.029-212.921-3476.927-213.7Z" transform="translate(3496.315 231.135)" fill="#fc5432" fill-rule="evenodd"/>
        <path id="Path_99" data-name="Path 99" d="M-3350.165-259.306a2.275,2.275,0,0,1-1.3-1.521,12.04,12.04,0,0,1-.493-3.09l-.145.124c-1.174,1-2.435,2.076-3.75,3.206-.012.188-.029.376-.052.564a3.844,3.844,0,0,0-.008,1.384.379.379,0,0,0,.361.346,38.455,38.455,0,0,0,6.141.2c.222,0,.173-.121.131-.244A1.531,1.531,0,0,0-3350.165-259.306Z" transform="translate(3385.508 277.144)" fill="#fc5432" fill-rule="evenodd"/>
      </g>
      <path id="Path_100" data-name="Path 100" d="M-3236.206-336.212v-9.018q-.944.855-1.937,1.729c-.047,2.811-.069,5.623-.026,8.435a25.789,25.789,0,0,0,.186,2.824c.033.263.139.3.359.275.363-.038.727-.074,1.091-.078.261,0,.335-.092.333-.353C-3236.214-333.67-3236.206-334.941-3236.206-336.212Z" transform="translate(3291.174 386.152)" fill="#fc5432" fill-rule="evenodd"/>
      <path id="Path_101" data-name="Path 101" d="M-3845.452-363.156a24.53,24.53,0,0,0,8.623,3.785c7.706,1.969,15.1.571,22.352-2.209.818-.313,1.626-.668,2.468-.9.631-.173,1.447-.437,1.888.2.5.719-.03,1.454-.506,2.007a7.4,7.4,0,0,1-1.672,1.44c-3.611,2.24-7.17,4.577-10.892,6.617-5.434,2.978-11.257,2.861-17.115,1.544-7.567-1.7-14.372-5.358-21.388-8.467-2.28-1.009-4.533-2.093-6.862-2.975-1.5-.568-1.427-1.117-.537-2.245,6.653-8.433,16.457-10.75,26.476-6.2,4.473,2.033,8.684,4.656,13.473,5.98.584.162,1.2.44,1.3,1.126.122.831-.573,1.173-1.156,1.486a9.363,9.363,0,0,1-7.24.745c-2.071-.6-4.128-1.24-6.185-1.884A4.08,4.08,0,0,0-3845.452-363.156Z" transform="translate(3869.731 411.454)" fill="#0092ff" fill-rule="evenodd"/>
    </g>
    <path id="Path_102" data-name="Path 102" d="M-3092.655-480.208a7.633,7.633,0,0,1-2.285-5.55q-.028-.813-.028-2.607t.028-2.607a7.316,7.316,0,0,1,2.3-5.452,8.618,8.618,0,0,1,6-1.976,10.3,10.3,0,0,1,4.442.883,7.222,7.222,0,0,1,2.817,2.186,4.721,4.721,0,0,1,1.009,2.565.57.57,0,0,1-.168.42.606.606,0,0,1-.448.168h-2.943a.663.663,0,0,1-.42-.112.951.951,0,0,1-.252-.364,3.911,3.911,0,0,0-1.374-1.766,4.373,4.373,0,0,0-2.663-.729,4.279,4.279,0,0,0-3.069,1.051,4.477,4.477,0,0,0-1.163,3.265q-.029.813-.028,2.467,0,1.626.028,2.467a4.626,4.626,0,0,0,1.177,3.349,4.259,4.259,0,0,0,3.083,1.079,4.65,4.65,0,0,0,3.2-1.065,4.043,4.043,0,0,0,1.205-3.2v-.869h-3.42a.647.647,0,0,1-.476-.2.646.646,0,0,1-.2-.477v-1.542a.648.648,0,0,1,.2-.477.649.649,0,0,1,.476-.2h6.727a.683.683,0,0,1,.5.2.651.651,0,0,1,.2.477v2.971a7.7,7.7,0,0,1-1.037,4.05,6.817,6.817,0,0,1-2.943,2.649,10.1,10.1,0,0,1-4.457.925A8.5,8.5,0,0,1-3092.655-480.208Z" transform="translate(3256.188 565.413)" fill="#fc5432"/>
    <path id="Path_103" data-name="Path 103" d="M-2792.255-404.385a6.742,6.742,0,0,1-1.485-4.625v-7.876a.637.637,0,0,1,.2-.491.674.674,0,0,1,.476-.182h2.523a.651.651,0,0,1,.477.2.651.651,0,0,1,.2.477v7.708q0,3.448,3,3.447a3,3,0,0,0,2.313-.925,3.574,3.574,0,0,0,.855-2.523v-7.708a.637.637,0,0,1,.2-.491.674.674,0,0,1,.477-.182h2.494a.665.665,0,0,1,.491.182.665.665,0,0,1,.182.491v13.23a.676.676,0,0,1-.182.477.638.638,0,0,1-.491.2h-2.326a.649.649,0,0,1-.477-.2.649.649,0,0,1-.2-.477v-1.149a5.394,5.394,0,0,1-4.653,2.1A5.144,5.144,0,0,1-2792.255-404.385Z" transform="translate(2977.543 489.899)" fill="#fc5432"/>
    <path id="Path_104" data-name="Path 104" d="M-2526.777-403.18a.648.648,0,0,1-.2-.477v-13.2a.684.684,0,0,1,.2-.5.65.65,0,0,1,.476-.2h2.3a.685.685,0,0,1,.5.2.685.685,0,0,1,.2.5v1.149a4.757,4.757,0,0,1,4.036-1.85h1.177a.665.665,0,0,1,.491.182.665.665,0,0,1,.182.491v2.046a.676.676,0,0,1-.182.477.638.638,0,0,1-.491.2h-2.214a2.8,2.8,0,0,0-2.075.757,2.8,2.8,0,0,0-.756,2.074v7.68a.648.648,0,0,1-.2.477.648.648,0,0,1-.476.2h-2.5A.648.648,0,0,1-2526.777-403.18Z" transform="translate(2730.133 489.899)" fill="#fc5432"/>
    <path id="Path_105" data-name="Path 105" d="M-2349.347-404.385a6.74,6.74,0,0,1-1.486-4.625v-7.876a.637.637,0,0,1,.2-.491.676.676,0,0,1,.477-.182h2.523a.65.65,0,0,1,.476.2.651.651,0,0,1,.2.477v7.708q0,3.448,3,3.447a3,3,0,0,0,2.313-.925,3.574,3.574,0,0,0,.855-2.523v-7.708a.637.637,0,0,1,.2-.491.675.675,0,0,1,.477-.182h2.494a.665.665,0,0,1,.491.182.664.664,0,0,1,.182.491v13.23a.675.675,0,0,1-.182.477.638.638,0,0,1-.491.2h-2.326a.648.648,0,0,1-.477-.2.648.648,0,0,1-.2-.477v-1.149a5.394,5.394,0,0,1-4.653,2.1A5.143,5.143,0,0,1-2349.347-404.385Z" transform="translate(2569.478 489.899)" fill="#fc5432"/>
  </g>
</svg>
