<svg xmlns="http://www.w3.org/2000/svg" width="12.727" height="11.878" viewBox="0 0 12.727 11.878">
  <g id="msg" transform="translate(-1 -2)">
    <g id="Group_4596" data-name="Group 4596" transform="translate(1 2)">
      <path id="Path_123" data-name="Path 123" d="M3.97,13.878a.424.424,0,0,1-.424-.424V11.333H2.273A1.274,1.274,0,0,1,1,10.06V3.273A1.274,1.274,0,0,1,2.273,2H12.454a1.274,1.274,0,0,1,1.273,1.273V10.06a1.274,1.274,0,0,1-1.273,1.273H7.3L4.235,13.785A.423.423,0,0,1,3.97,13.878Zm-1.7-11.03a.425.425,0,0,0-.424.424V10.06a.425.425,0,0,0,.424.424h1.7a.424.424,0,0,1,.424.424v1.663l2.492-1.994a.424.424,0,0,1,.265-.093h5.3a.425.425,0,0,0,.424-.424V3.273a.425.425,0,0,0-.424-.424Z" transform="translate(-1 -2)" fill="#fff"/>
    </g>
    <g id="Group_4597" data-name="Group 4597" transform="translate(3.545 5.394)">
      <path id="Path_124" data-name="Path 124" d="M14.212,10.848H7.424a.424.424,0,1,1,0-.848h6.788a.424.424,0,1,1,0,.848Z" transform="translate(-7 -10)" fill="#fff"/>
    </g>
    <g id="Group_4598" data-name="Group 4598" transform="translate(3.545 7.091)">
      <path id="Path_125" data-name="Path 125" d="M10.818,14.848H7.424a.424.424,0,1,1,0-.848h3.394a.424.424,0,1,1,0,.848Z" transform="translate(-7 -14)" fill="#fff"/>
    </g>
  </g>
</svg>
