<svg xmlns="http://www.w3.org/2000/svg" width="11.881" height="11.881" viewBox="0 0 11.881 11.881">
  <g id="sortby" transform="translate(-2 -2)">
    <path id="Path_7" data-name="Path 7" d="M2,2.594A.594.594,0,0,1,2.594,2H9.721a.594.594,0,0,1,0,1.188H2.594A.594.594,0,0,1,2,2.594ZM8.533,5.563H2.594a.594.594,0,0,0,0,1.188H8.533a.594.594,0,1,0,0-1.188ZM7.345,9.127H2.594a.594.594,0,1,0,0,1.188H7.345a.594.594,0,1,0,0-1.188ZM6.157,12.69H2.594a.594.594,0,1,0,0,1.188H6.157a.594.594,0,1,0,0-1.188Zm7.548-1.609a.594.594,0,0,0-.843,0l-.766.772V2.594a.594.594,0,0,0-1.188,0v9.259l-.766-.772a.6.6,0,1,0-.843.843l1.782,1.782a.594.594,0,0,0,.843,0l1.782-1.782a.594.594,0,0,0,0-.843Z" fill="#878787"/>
  </g>
</svg>
